<svg width="18" height="18" viewBox="0 0 18 18" fill="none" xmlns="http://www.w3.org/2000/svg">
<path d="M17 8C17.5523 8 18 8.44772 18 9C18 9.55228 17.5523 10 17 10H1C0.447715 10 2.5e-09 9.55228 2.5e-09 9C2.5e-09 8.44772 0.447715 8 1 8H17ZM9.29289 16.2929C9.68342 16.6834 9.68342 17.3166 9.29289 17.7071C8.90237 18.0976 8.2692 18.0976 7.87868 17.7071L0.585786 10.4142C-0.195262 9.63316 -0.195262 8.36684 0.585786 7.58579L7.87868 0.292893C8.2692 -0.0976311 8.90237 -0.0976311 9.29289 0.292893C9.68342 0.683417 9.68342 1.31658 9.29289 1.70711L2 9L9.29289 16.2929Z" fill="white"/>
</svg>
