<svg width="20" height="20" viewBox="0 0 20 20" fill="none" xmlns="http://www.w3.org/2000/svg">
<path fill-rule="evenodd" clip-rule="evenodd" d="M10 0C10.5523 0 11 0.447715 11 1V10.5858L14.2929 7.29289C14.6834 6.90237 15.3166 6.90237 15.7071 7.29289C16.0976 7.68342 16.0976 8.31658 15.7071 8.70711L10.7071 13.7071C10.3166 14.0976 9.68342 14.0976 9.29289 13.7071L4.29289 8.70711C3.90237 8.31658 3.90237 7.68342 4.29289 7.29289C4.68342 6.90237 5.31658 6.90237 5.70711 7.29289L9 10.5858V1C9 0.447715 9.44771 0 10 0ZM1 10C1.55228 10 2 10.4477 2 11V15C2 16.6569 3.34315 18 5 18H15C16.6569 18 18 16.6569 18 15V11C18 10.4477 18.4477 10 19 10C19.5523 10 20 10.4477 20 11V15C20 17.7614 17.7614 20 15 20H5C2.23858 20 0 17.7614 0 15V11C0 10.4477 0.447715 10 1 10Z" fill="black" fill-opacity="0.2"/>
</svg>
