<svg width="18" height="30" viewBox="0 0 18 30" fill="none" xmlns="http://www.w3.org/2000/svg">
<path d="M12.3003 7.74219C12.3003 5.97461 10.8108 4.53711 8.97951 4.53711C7.14992 4.53711 5.65896 5.97461 5.65896 7.74219C5.65896 9.5083 7.14992 10.9463 8.97951 10.9463C10.8108 10.9463 12.3003 9.5083 12.3003 7.74219ZM16.9995 7.74219C16.9995 12.0098 13.4036 15.4814 8.97976 15.4814C4.55666 15.4814 0.959738 12.0098 0.959738 7.74219C0.959738 3.47266 4.55666 0 8.97976 0C13.4036 0 16.9995 3.47266 16.9995 7.74219ZM16.9021 19.939C15.4519 20.8179 13.8775 21.4414 12.2449 21.8003L16.7283 26.1289C17.6467 27.0132 17.6467 28.4502 16.7283 29.3359C15.8108 30.2217 14.3238 30.2217 13.4072 29.3359L8.99929 25.0825L4.59499 29.3359C4.13576 29.7783 3.53396 29.9995 2.93239 29.9995C2.33156 29.9995 1.73073 29.7783 1.27151 29.3359C0.354024 28.4502 0.354026 27.0142 1.27053 26.1289L5.75442 21.8003C4.12185 21.4414 2.54738 20.8169 1.09743 19.939C2.02656e-05 19.271 -0.329813 17.8716 0.361593 16.8115C1.05129 15.7495 2.50149 15.4302 3.60085 16.0981C6.88405 18.0918 11.1135 18.0923 14.3987 16.0981C15.4981 15.4302 16.9475 15.7495 17.6387 16.8115C18.3301 17.8706 17.9995 19.271 16.9021 19.939Z" fill="white"/>
</svg>
